<svg width="32" height="32" viewBox="0 0 32 32" fill="none" xmlns="http://www.w3.org/2000/svg"><path d="M10.7 20.02C12.39 20.17 14.02 19.14 14.56 17.46L17.99 6.94C18.1 6.59 17.91 6.22 17.57 6.11L11.72 4.2C11.37 4.09 11 4.28 10.89 4.62L7.46 15.14C6.92 16.82 7.63 18.62 9.08 19.5L6.62 27.02L4.08 26.19C3.65 26.05 3.19 26.29 3.04 26.73C2.89 27.17 3.13 27.64 3.57 27.78L10.26 29.96C10.7 30.11 11.17 29.87 11.31 29.43C11.46 28.99 11.22 28.52 10.78 28.38L8.24 27.55L10.7 20.02Z" fill="#83CBFF"/><path d="M21.8 17.85C20.11 18 18.48 16.97 17.93 15.29L14.5 4.77C14.39 4.42 14.58 4.05 14.92 3.94L20.77 2.03C21.12 1.92 21.49 2.11 21.6 2.45L25.03 12.97C25.58 14.65 24.87 16.45 23.42 17.33L25.87 24.85L28.41 24.02C28.85 23.88 29.32 24.12 29.45 24.56C29.6 25 29.36 25.47 28.92 25.61L22.23 27.79C21.79 27.94 21.32 27.7 21.18 27.26C21.03 26.82 21.27 26.35 21.71 26.21L24.25 25.38L21.8 17.85Z" fill="#AEDDFF"/><path d="M10.2 18.79C11.77 19.3 13.46 18.44 13.98 16.87L15.7 11.59C15.81 11.24 15.55 10.88 15.18 10.88L9.98 10.97C9.75 10.97 9.55 11.12 9.48 11.34L8.28 15.01C7.77 16.58 8.63 18.27 10.2 18.79Z" fill="#FFCE7C"/><path d="M18.63 4.96C18.63 5.42 18.26 5.79 17.8 5.79C17.35 5.79 16.97 5.42 16.97 4.96C16.97 4.5 17.35 4.13 17.8 4.13C18.26 4.13 18.63 4.5 18.63 4.96Z" fill="#FFDEA7"/><path d="M20.19 7.11C20.19 7.42 19.94 7.67 19.63 7.67C19.33 7.67 19.07 7.42 19.07 7.11C19.07 6.8 19.33 6.55 19.63 6.55C19.94 6.55 20.19 6.8 20.19 7.11Z" fill="#FFDEA7"/><path d="M19.86 5.29C20.05 5.29 20.19 5.14 20.19 4.96C20.19 4.78 20.05 4.63 19.86 4.63C19.68 4.63 19.53 4.78 19.53 4.96C19.53 5.14 19.68 5.29 19.86 5.29Z" fill="#FFDEA7"/><path d="M18.51 14.7C19.03 16.27 20.72 17.13 22.29 16.62C23.86 16.1 24.72 14.41 24.21 12.85L23.17 9.67C23.01 9.16 22.53 8.84 22 8.87C20.59 8.96 19.2 8.51 18.12 7.6L17.29 6.9C16.77 6.46 16 6.98 16.21 7.63L18.51 14.7Z" fill="#FFDEA7"/></svg>