<svg width="32" height="32" viewBox="0 0 32 32" fill="none" xmlns="http://www.w3.org/2000/svg"><path d="M20.51 29.97L9.09 29.97C4.34 29.97 2.01 26.11 2.06 23C2.06 19.59 6.91 7.12 6.91 7.12C7.72 5.09 8.42 3.43 10.81 3.47C12.66 3.47 16.2 4.97 16.2 7.97C16.2 9.59 15.06 10.08 15.06 10.08C15.06 11.05 14.27 11.97 13.42 11.97H9.69C9.69 11.97 12.83 18.27 13.09 18.77C13.36 19.26 13.63 18.77 13.63 18.77C14.69 15.53 18.25 12.99 21.41 12.99C25.89 12.99 30 17.02 30 20.77C30 20.77 30 20.77 30 20.77V20.77C30 20.77 30 20.77 30 20.77C30 25.53 26.84 29.97 20.51 29.97Z" fill="#FFC83D"/><path d="M30 20.77V20.77C30 20.77 30 20.77 30 20.77C30 20.77 30 20.77 30 20.77Z" fill="#FFC83D"/><path d="M10.25 6.44L11.55 8.09H13.64C13.17 7.45 11.53 6.21 10.25 6.44Z" fill="#D67D00"/><path d="M15.08 10.07C15.07 10.08 15.06 10.08 15.06 10.08C15.06 11.05 14.27 11.97 13.42 11.97H9.83C9.83 11.97 10.25 12.94 10.77 14.14C7.96 13.91 7 10.99 7 10.99H7.81C7.83 11 7.84 11 7.85 11.01H13.16C13.69 11.01 14.84 10.53 14.02 9C14.31 9 14.91 9.44 15.08 10.07Z" fill="#D67D00"/><path d="M14.65 18.7C14.46 18.39 14.19 18.18 13.89 18.07C13.79 18.3 13.7 18.53 13.63 18.77C13.63 18.77 13.53 18.94 13.4 18.98C13.55 18.99 13.7 19.07 13.8 19.22L16.76 24.1C16.9 24.34 17.21 24.41 17.45 24.27C17.68 24.13 17.76 23.82 17.61 23.58L14.65 18.7Z" fill="#D67D00"/><path d="M12.09 18.69C12.26 18.42 12.5 18.22 12.76 18.11C12.93 18.45 13.05 18.68 13.09 18.77C13.17 18.91 13.24 18.97 13.31 18.98C13.17 19 13.03 19.08 12.94 19.22L10.05 23.92C9.91 24.15 9.6 24.23 9.36 24.08C9.13 23.94 9.05 23.63 9.2 23.39L12.09 18.69Z" fill="#D67D00"/></svg>