<svg width="32" height="32" viewBox="0 0 32 32" fill="none" xmlns="http://www.w3.org/2000/svg"><path d="M4.45 6.52C4.32 6.52 4.19 6.47 4.1 6.37C3.9 6.17 3.9 5.86 4.1 5.66C6.47 3.3 9.61 2 12.96 2C14.19 2 15.42 2.18 16.59 2.54C16.85 2.62 17 2.9 16.92 3.16C16.84 3.43 16.56 3.58 16.3 3.49C15.22 3.17 14.09 3 12.96 3C9.88 3 6.98 4.2 4.81 6.38C4.71 6.48 4.58 6.52 4.45 6.52Z" fill="#D3D3D3"/><path d="M2.5 16.48C2.22 16.48 2 16.26 2 15.98C2 9.94 6.92 5.02 12.96 5.02C13.24 5.02 13.46 5.24 13.46 5.52C13.46 5.8 13.24 6.02 12.96 6.02C7.47 6.02 3 10.49 3 15.98C3 16.26 2.78 16.48 2.5 16.48Z" fill="#D3D3D3"/><path d="M22.31 16.48C22.31 16.76 22.53 16.98 22.81 16.98C24.3 16.98 25.73 16.53 26.94 15.67C28.86 14.32 30 12.12 30 9.78C30 9.51 29.78 9.28 29.5 9.28C29.22 9.28 29 9.5 29 9.78C29 11.8 28.01 13.69 26.37 14.86C25.32 15.59 24.09 15.98 22.81 15.98C22.53 15.98 22.31 16.2 22.31 16.48Z" fill="#D3D3D3"/><path d="M28 6.43V4.48L27.31 5H21.96C17.79 5 14.41 8.53 14.41 12.7V13.13C14.41 13.6 14.79 13.98 15.26 13.98H20.45C24.62 13.98 28 10.6 28 6.43Z" fill="#00D26A"/><path d="M5 18.88V16.01L6 17H13.89C20.04 17 25.03 21.99 25.03 28.14V28.77C25.03 29.46 24.47 30.02 23.78 30.02H16.14C9.99 30.02 5 25.03 5 18.88Z" fill="#00D26A"/><path d="M18.67 11.35C18.6 11.39 18.51 11.41 18.43 11.41C18.25 11.41 18.07 11.31 17.98 11.14C17.84 10.89 17.93 10.58 18.18 10.45L26.26 6.04C26.7 5.79 26.98 5.33 26.98 4.82V2.53C26.98 2.25 27.21 2.02 27.49 2.02C27.77 2.02 28 2.25 28 2.53V4.83C28 5.71 27.52 6.51 26.75 6.94L18.67 11.35Z" fill="#008463"/><path d="M18.75 26.12C18.87 26.18 18.99 26.21 19.11 26.21C19.37 26.21 19.63 26.07 19.76 25.82C19.96 25.45 19.82 25 19.46 24.8L7.56 18.3C6.91 17.94 6.5 17.26 6.5 16.51V13.13C6.5 12.72 6.16 12.38 5.75 12.38C5.34 12.38 5 12.72 5 13.13V16.51C5 17.81 5.71 19 6.85 19.62L18.75 26.12Z" fill="#008463"/></svg>