<svg width="32" height="32" viewBox="0 0 32 32" fill="none" xmlns="http://www.w3.org/2000/svg"><path d="M2 5.8C2 3.7 3.7 2 5.8 2H26.2C28.3 2 30 3.7 30 5.8V7.79L25.97 15.2L3 9.2L2 6.86V5.8Z" fill="#26C9FC"/><path d="M18.58 12.72C18.26 8.85 15.02 5.81 11.06 5.81C9.06 5.81 7.23 6.6 5.88 7.87C5.22 7.13 4.25 6.66 3.17 6.66C2.76 6.66 2.37 6.73 2 6.85V13.75L2.01 13.75V17H16.93C17.18 19.56 19.34 21.55 21.96 21.55C24.76 21.55 27.02 19.29 27.02 16.49C27.02 16.07 26.97 15.66 26.87 15.27C27.62 14.7 28.1 13.79 28.1 12.77C28.1 11.03 26.69 9.61 24.94 9.61C23.67 9.61 22.58 10.36 22.08 11.43C22.04 11.43 22 11.43 21.96 11.43C20.66 11.43 19.48 11.92 18.58 12.72Z" fill="#E6E6E6"/><path d="M30 17H2.01V26.11H30V17Z" fill="#00D26A"/><path d="M2.4 7.22L12.18 17H2.01V6.92C2.15 7 2.28 7.1 2.4 7.22ZM30 7.78V17H20.12L22.13 14.62L26.51 9.36C26.92 8.86 27.54 8.58 28.18 8.58H28.3C28.88 8.58 29.43 8.35 29.84 7.94L30 7.78Z" fill="#433B6B"/><path d="M29.98 26.61C29.77 28.52 28.16 30 26.2 30H5.8C3.99 30 2.47 28.73 2.09 27.03L12.19 17H20.19L29.98 26.61Z" fill="#433B6B"/><path d="M2.22 27.48C2.08 27.08 2 26.65 2 26.2V26.02L12.19 17H13.19L2.22 27.48ZM30 26.01V26.2C30 26.67 29.92 27.11 29.76 27.52L19.19 17H20.19L30 26.01Z" fill="#D3D3D3"/><path d="M16.25 17.38L16.4 18.87H15.6L15.75 17.38H16.25ZM16.47 19.61L16.78 22.71L15.22 22.72L15.53 19.61H16.47ZM17.5 30L16.93 24.22H15.07L14.5 30H17.5Z" fill="#FCD53F"/><path d="M4.39 15H5C5.11 15 5.19 15.09 5.19 15.19V17.8C5.19 17.9 5.11 17.99 5 17.99H4.39C4.29 17.99 4.2 17.91 4.2 17.8V15.19C4.2 15.09 4.28 15 4.39 15ZM9.39 15H10C10.11 15 10.19 15.09 10.19 15.19V17.8C10.19 17.9 10.11 17.99 10 17.99H9.39C9.29 17.99 9.2 17.91 9.2 17.8V15.19C9.2 15.09 9.28 15 9.39 15Z" fill="#D3D3D3"/><path d="M10.07 11H4.3C3.69 11 3.19 11.5 3.19 12.11V14.89C3.19 15.5 3.69 16 4.3 16H10.07C10.68 16 11.18 15.5 11.18 14.89V12.11C11.19 11.5 10.69 11 10.07 11Z" fill="#008463"/><path d="M4.69 12H7.69C7.97 12 8.19 12.22 8.19 12.5C8.19 12.78 7.97 13 7.69 13H4.69C4.41 13 4.19 12.78 4.19 12.5C4.19 12.22 4.41 12 4.69 12Z" fill="#F4F4F4"/><path d="M9.19 12.5C9.19 12.22 9.41 12 9.69 12C9.97 12 10.19 12.22 10.19 12.5C10.19 12.78 9.97 13 9.69 13C9.41 13 9.19 12.78 9.19 12.5Z" fill="#F4F4F4"/><path d="M9.69 14C9.41 14 9.19 14.22 9.19 14.5C9.19 14.78 9.41 15 9.69 15C9.97 15 10.19 14.78 10.19 14.5C10.19 14.22 9.97 14 9.69 14Z" fill="#F4F4F4"/><path d="M4.63 14H6.76C7 14 7.19 14.19 7.19 14.43V14.56C7.19 14.8 7 14.99 6.76 14.99H4.63C4.39 14.99 4.2 14.8 4.2 14.56V14.43C4.2 14.19 4.39 14 4.63 14Z" fill="#F4F4F4"/></svg>