<svg width="32" height="32" viewBox="0 0 32 32" fill="none" xmlns="http://www.w3.org/2000/svg"><path d="M24.09 6.23C23.7 5.57 23.1 5.1 22.41 4.86C21.67 4.61 21.03 4.14 20.62 3.47C20.08 2.59 19.11 2 18 2C17.57 2 17.16 2.09 16.79 2.25C16.29 2.47 15.72 2.47 15.21 2.25C14.84 2.09 14.43 2 14 2C12.91 2 11.95 2.57 11.4 3.43C10.97 4.11 10.33 4.61 9.57 4.87C8.86 5.11 8.24 5.62 7.85 6.33C7.3 7.36 7.41 8.59 8.04 9.51C8.27 9.85 8.4 10.24 8.4 10.64V16C8.4 17.2 9.16 18.26 10.3 18.66L12.75 19.5V9.94C12.94 9.75 13.11 9.54 13.25 9.3C13.46 8.92 13.59 8.52 13.63 8.11C13.75 8.12 13.87 8.13 13.99 8.13C14.75 8.13 15.45 7.85 15.99 7.39C16.53 7.85 17.23 8.13 17.99 8.13C18.11 8.13 18.23 8.12 18.35 8.11C18.4 8.52 18.52 8.92 18.74 9.3C18.88 9.54 19.05 9.76 19.24 9.94V19.5L21.68 18.66C22.82 18.27 23.58 17.21 23.58 16V10.64C23.58 10.23 23.7 9.84 23.94 9.51C24.61 8.57 24.71 7.29 24.09 6.23Z" fill="#F1A11E"/><path d="M9.13 11L9.12 10.36C9.05 7.7 11.2 5.5 13.87 5.5H15.49C15.8 5.5 16.07 5.69 16.19 5.97L16.25 6.11C16.7 7.25 17.8 8 19.03 8H21.31C22.12 8 22.78 8.64 22.81 9.45L22.86 11H22.86L22.86 11.08C23.8 11.35 24.5 12.22 24.5 13.25C24.5 14.38 23.66 15.32 22.57 15.48L22.47 17.06C22.13 19.61 19.9 21.5 17.27 21.5H14.74C12.11 21.5 9.89 19.61 9.54 17.06L9.43 15.48C8.34 15.32 7.5 14.38 7.5 13.25C7.5 12.22 8.19 11.35 9.14 11.08L9.13 11Z" fill="#FFC83D"/><path d="M15.49 12.37L14.8 14.59C14.66 15.04 15 15.5 15.47 15.5H16.48C16.96 15.5 17.29 15.04 17.15 14.59L16.46 12.37C16.33 11.88 15.64 11.88 15.49 12.37Z" fill="#ED9200"/><path d="M14.94 12.51C15.01 12.77 14.78 13 14.5 13H11.5C11.22 13 10.99 12.77 11.06 12.51C11.28 11.64 12.07 11 13 11C13.93 11 14.72 11.64 14.94 12.51Z" fill="white"/><path d="M20.94 12.51C21.01 12.77 20.78 13 20.5 13H17.5C17.22 13 16.99 12.77 17.06 12.51C17.28 11.64 18.07 11 19 11C19.93 11 20.72 11.64 20.94 12.51Z" fill="white"/><path d="M14.5 12.75C14.5 12.84 14.49 12.92 14.48 13H12.03C12.01 12.92 12 12.84 12 12.75C12 12.06 12.56 11.5 13.25 11.5C13.94 11.5 14.5 12.06 14.5 12.75Z" fill="#7D4533"/><path d="M20 12.75C20 12.84 19.99 12.92 19.98 13H17.52C17.51 12.92 17.5 12.84 17.5 12.75C17.5 12.06 18.06 11.5 18.75 11.5C19.44 11.5 20 12.06 20 12.75Z" fill="#7D4533"/><path d="M14 12.75C14 12.84 13.99 12.92 13.96 13H12.54C12.52 12.92 12.5 12.84 12.5 12.75C12.5 12.34 12.84 12 13.25 12C13.66 12 14 12.34 14 12.75Z" fill="black"/><path d="M19.5 12.75C19.5 12.84 19.49 12.92 19.46 13H18.04C18.02 12.92 18 12.84 18 12.75C18 12.34 18.34 12 18.75 12C19.16 12 19.5 12.34 19.5 12.75Z" fill="black"/><path d="M16 19C16.83 19 17.5 18.33 17.5 17.5C17.5 16.67 16.83 16 16 16C15.17 16 14.5 16.67 14.5 17.5C14.5 18.33 15.17 19 16 19Z" fill="#990839"/><path d="M11.28 9.91C11.32 10.07 11.46 10.18 11.62 10.18C11.65 10.18 11.68 10.18 11.72 10.17C11.72 10.17 12.78 9.9 13.84 9.66C14.03 9.62 14.14 9.43 14.1 9.24C14.06 9.05 13.87 8.93 13.68 8.98C12.61 9.22 11.54 9.49 11.54 9.49C11.35 9.54 11.23 9.73 11.28 9.91Z" fill="#D37034"/><path d="M20.04 10.17C20.07 10.18 20.1 10.18 20.13 10.18C20.29 10.18 20.43 10.08 20.48 9.92C20.52 9.73 20.41 9.54 20.22 9.49C20.22 9.49 19.15 9.22 18.08 8.98C17.89 8.93 17.7 9.05 17.66 9.24C17.61 9.43 17.73 9.62 17.92 9.66C18.98 9.9 20.04 10.17 20.04 10.17Z" fill="#D37034"/><path d="M13 12.25C13 12.39 12.89 12.5 12.75 12.5C12.61 12.5 12.5 12.39 12.5 12.25C12.5 12.11 12.61 12 12.75 12C12.89 12 13 12.11 13 12.25Z" fill="white"/><path d="M18.5 12.25C18.5 12.39 18.39 12.5 18.25 12.5C18.11 12.5 18 12.39 18 12.25C18 12.11 18.11 12 18.25 12C18.39 12 18.5 12.11 18.5 12.25Z" fill="white"/><path d="M25.5 30H6.5C5.67 30 5 29.33 5 28.5V24.17C5 21.87 6.87 20 9.17 20H22.83C25.13 20 27 21.87 27 24.17V28.5C27 29.33 26.33 30 25.5 30Z" fill="#F24827"/><path d="M6.81 20.57L9.09 21.63L11.2 17.11L8.97 16.06L6.81 20.57Z" fill="#FF8101"/><path d="M11.56 16.1L26.97 23.28C28.73 24.1 29.49 26.2 28.67 27.96C27.84 29.73 25.75 30.49 23.99 29.67L8.58 22.48C8.08 22.25 7.86 21.64 8.1 21.14L10.22 16.57C10.45 16.08 11.06 15.86 11.56 16.1Z" fill="#FF6723"/><path d="M25.19 20.57L22.91 21.63L20.8 17.11L23.06 16.04L25.19 20.57Z" fill="#FF6723"/><path d="M20.44 16.1L5.03 23.27C3.27 24.1 2.51 26.2 3.33 27.96C4.16 29.73 6.25 30.49 8.01 29.67L23.42 22.48C23.92 22.25 24.14 21.65 23.9 21.14L21.78 16.57C21.55 16.08 20.94 15.86 20.44 16.1Z" fill="#FF8101"/><path d="M25.83 20.23L28.9 18.44C29.16 18.29 29.32 18.01 29.32 17.7C29.32 17.14 28.79 16.73 28.25 16.87L26.05 17.44L25.83 20.23Z" fill="#F59F00"/><path d="M6.17 20.23L3.1 18.43C2.83 18.28 2.67 18 2.67 17.7C2.67 17.14 3.2 16.73 3.74 16.87L5.94 17.44L6.17 20.23Z" fill="#F59F00"/><path d="M9 16.07L6.88 20.61L6.16 20.23C5.42 19.84 4.89 19.15 4.72 18.33L4.43 16.94C4.35 16.52 4.14 16.14 3.84 15.84L2.33 14.54C2.12 14.36 2 14.1 2 13.83C2 13.12 2.76 12.67 3.38 13.01L9 16.07Z" fill="#FFC83D"/><path d="M23 16.07L25.12 20.61L25.84 20.23C26.58 19.84 27.11 19.15 27.28 18.33L27.57 16.94C27.65 16.52 27.86 16.14 28.16 15.84L29.67 14.54C29.88 14.36 30 14.1 30 13.83C30 13.12 29.24 12.67 28.62 13.01L23 16.07Z" fill="#FFC83D"/></svg>