<svg width="32" height="32" viewBox="0 0 32 32" fill="none" xmlns="http://www.w3.org/2000/svg"><path d="M23.59 12.34C23.81 11.89 23.93 11.39 23.93 10.86C23.93 10.16 23.72 9.51 23.36 8.97C23 8.41 22.81 7.77 22.81 7.12V7.11C22.81 5.22 21.28 3.68 19.38 3.68C19.19 3.68 19.02 3.59 18.91 3.44C18.29 2.57 17.27 2.01 16.12 2.01C14.97 2.01 13.95 2.58 13.33 3.44C13.23 3.59 13.05 3.68 12.87 3.68C10.98 3.68 9.44 5.21 9.44 7.11V7.12C9.44 7.78 9.25 8.42 8.89 8.96C8.53 9.5 8.32 10.15 8.32 10.85C8.32 11.38 8.44 11.89 8.66 12.33C8.73 12.48 8.73 12.66 8.66 12.81C8.44 13.25 8.32 13.75 8.32 14.27C8.32 16.12 9.82 17.62 11.67 17.62H20.59C22.44 17.62 23.94 16.12 23.94 14.27C23.94 13.74 23.82 13.25 23.6 12.81C23.52 12.66 23.52 12.49 23.59 12.34Z" fill="#F1A11E"/><path d="M11.41 16.5H20.59C19.19 15.86 17.64 15.5 16 15.5C14.36 15.5 12.81 15.86 11.41 16.5Z" fill="#212121"/><path d="M23 18.5H9L7 24L9 30H23L25 24L23 18.5Z" fill="#212121"/><path d="M23 30L23 18.59C21.63 21.05 19.02 22.72 16 22.72C12.98 22.72 10.36 21.06 9 18.6V30H5V26.5C4.99 23.09 6.57 20.03 9 18V18.01C10.9 16.45 13.34 15.5 16 15.5C18.66 15.5 21.1 16.44 23 18.01V18C25.45 20.02 27 23.09 27 26.5V30H23Z" fill="black"/><path d="M12.5 29.99V24.74C12.5 24.46 12.28 24.24 12 24.24C11.72 24.24 11.5 24.46 11.5 24.74V29.99H12.5Z" fill="black"/><path d="M16.5 29.99V24.74C16.5 24.46 16.28 24.24 16 24.24C15.72 24.24 15.5 24.46 15.5 24.74V29.99H16.5Z" fill="black"/><path d="M20.5 29.99V24.74C20.5 24.46 20.28 24.24 20 24.24C19.72 24.24 19.5 24.46 19.5 24.74V29.99H20.5Z" fill="black"/><path d="M16.92 18.28L16.27 18.86C16.11 19 15.88 19 15.72 18.86L15.07 18.28C14.35 17.63 13.93 16.7 13.93 15.73V12.64C13.93 11.5 14.85 10.58 15.99 10.58C17.13 10.58 18.05 11.5 18.05 12.64V15.73C18.05 16.7 17.64 17.63 16.92 18.28Z" fill="#FCB100"/><path d="M13.16 10.66C13.16 11.56 12.43 12.29 11.53 12.29C10.63 12.29 9.9 11.56 9.9 10.66C9.9 9.76 10.63 9.03 11.53 9.03C12.43 9.03 13.16 9.76 13.16 10.66Z" fill="#FDBB11"/><path d="M22.36 10.66C22.36 11.56 21.63 12.29 20.73 12.29C19.83 12.29 19.1 11.56 19.1 10.66C19.1 9.76 19.83 9.03 20.73 9.03C21.63 9.03 22.36 9.76 22.36 10.66Z" fill="#FDBB11"/><path d="M20.19 7.58H16.89C15.58 7.58 14.36 6.93 13.62 5.85C13.5 5.67 13.22 5.7 13.14 5.9L13.05 6.11C12.82 6.68 12.37 7.13 11.83 7.38C11.79 7.39 11.75 7.41 11.72 7.42C11.47 7.54 10.91 7.92 10.89 8.9L11.03 12.19C11.15 15.11 13.4 17.06 16.13 17.06C18.86 17.06 21.11 15.11 21.23 12.19L21.36 9.06C21.34 7.68 20.38 7.59 20.19 7.58Z" fill="#FFC83D"/><path d="M16.13 13.94C15.59 13.94 15.08 13.81 14.66 13.59C14.51 13.51 14.36 13.68 14.45 13.82C14.81 14.37 15.43 14.74 16.13 14.74C16.83 14.74 17.46 14.37 17.81 13.82C17.9 13.68 17.74 13.52 17.6 13.59C17.17 13.81 16.67 13.94 16.13 13.94Z" fill="#990839"/><path d="M15.74 10.57L15.21 12.27C15.1 12.62 15.36 12.97 15.73 12.97H16.51C16.88 12.97 17.14 12.62 17.03 12.27L16.5 10.57C16.39 10.2 15.86 10.2 15.74 10.57Z" fill="#ED9200"/><path d="M13.42 9.5C14.01 9.5 14.49 9.9 14.79 10.36C14.54 10.44 14.29 10.51 14.05 10.58C13.6 10.7 13.16 10.83 12.71 10.99L12.21 10.54C12 10.35 12.02 10.02 12.24 9.86C12.57 9.63 13.01 9.5 13.42 9.5Z" fill="black"/><path d="M18.86 9.5C18.28 9.5 17.8 9.91 17.5 10.36C17.77 10.44 18.03 10.52 18.29 10.59C18.71 10.71 19.14 10.83 19.58 10.99L20.08 10.54C20.28 10.35 20.27 10.02 20.04 9.86C19.71 9.63 19.27 9.5 18.86 9.5Z" fill="black"/><path d="M12.2 10.7C12.36 10.07 12.93 9.6 13.61 9.6C14.31 9.6 14.9 10.1 15.03 10.77C15.06 10.92 14.94 11.05 14.79 11.05H12.48C12.29 11.05 12.16 10.88 12.2 10.7Z" fill="white"/><path d="M20.08 10.7C19.92 10.07 19.35 9.6 18.67 9.6C17.97 9.6 17.38 10.1 17.25 10.77C17.22 10.92 17.34 11.05 17.49 11.05H19.8C19.99 11.05 20.12 10.88 20.08 10.7Z" fill="white"/><path d="M12.89 10.81C12.89 10.3 13.31 9.88 13.82 9.88C14.33 9.88 14.75 10.29 14.75 10.8C14.75 10.89 14.74 10.97 14.71 11.06H12.92C12.9 10.98 12.89 10.9 12.89 10.81Z" fill="#7D4533"/><path d="M19.39 10.81C19.39 10.3 18.97 9.88 18.46 9.88C17.95 9.88 17.53 10.29 17.54 10.81C17.54 10.9 17.55 10.98 17.57 11.06H19.36C19.38 10.98 19.39 10.9 19.39 10.81Z" fill="#7D4533"/><path d="M13.82 10.27C14.11 10.27 14.35 10.51 14.35 10.8C14.35 10.89 14.33 10.98 14.29 11.05H13.35C13.31 10.97 13.29 10.89 13.29 10.8C13.29 10.51 13.53 10.27 13.82 10.27Z" fill="black"/><path d="M18.46 10.27C18.17 10.27 17.93 10.51 17.93 10.8C17.93 10.89 17.95 10.98 17.99 11.05H18.93C18.97 10.97 18.99 10.89 18.99 10.8C18.99 10.51 18.75 10.27 18.46 10.27Z" fill="black"/><path d="M13.67 10.44C13.67 10.53 13.59 10.61 13.5 10.61C13.41 10.61 13.33 10.53 13.33 10.44C13.33 10.35 13.41 10.27 13.5 10.27C13.59 10.27 13.67 10.35 13.67 10.44Z" fill="white"/><path d="M18.32 10.44C18.32 10.53 18.24 10.61 18.15 10.61C18.06 10.61 17.98 10.53 17.98 10.44C17.98 10.35 18.06 10.27 18.15 10.27C18.24 10.27 18.32 10.35 18.32 10.44Z" fill="white"/><path d="M19.66 8.93C19.71 8.96 19.75 8.97 19.8 8.97C19.9 8.97 19.99 8.92 20.04 8.83C20.12 8.7 20.07 8.53 19.94 8.45C19.94 8.45 19.94 8.45 19.93 8.45C19.83 8.39 18.96 7.93 17.96 8.11C17.81 8.13 17.71 8.28 17.74 8.43C17.76 8.58 17.91 8.68 18.06 8.65C18.83 8.51 19.52 8.86 19.64 8.92C19.65 8.93 19.66 8.93 19.66 8.93Z" fill="#D37034"/><path d="M12.21 8.83C12.26 8.92 12.35 8.97 12.45 8.97C12.5 8.97 12.54 8.96 12.59 8.93C12.59 8.93 12.6 8.93 12.61 8.92C12.73 8.86 13.42 8.52 14.19 8.66C14.34 8.69 14.48 8.59 14.5 8.43C14.53 8.28 14.43 8.14 14.28 8.11C13.29 7.93 12.42 8.39 12.32 8.45C12.31 8.45 12.31 8.45 12.31 8.45C12.18 8.53 12.13 8.7 12.21 8.83Z" fill="#D37034"/><path d="M25.33 13.78C25.22 13.43 24.9 13.17 24.51 13.17C24.12 13.17 23.8 13.42 23.69 13.78L23.11 15.89C23.04 16.13 23.22 16.37 23.47 16.37H25.54C25.79 16.37 25.97 16.13 25.9 15.89L25.33 13.78Z" fill="#F9C23C"/><path d="M21.35 3.6H24.11C24.11 3.6 24.11 3.6 24.11 3.6L24.11 11.68C23.84 11.82 23.65 12.11 23.65 12.44C23.65 12.91 24.03 13.3 24.51 13.3C24.99 13.3 25.37 12.92 25.37 12.44C25.37 12.11 25.18 11.82 24.91 11.68V2.8L24.9 2.8C24.9 2.36 24.54 2 24.1 2H8.14C7.7 2 7.34 2.36 7.34 2.8C7.34 3.24 7.7 3.6 8.14 3.6H10.91L10.03 5.2L14.59 5.96C15.61 6.11 16.64 6.11 17.66 5.95L22.21 5.19L21.35 3.6Z" fill="#1C1C1C"/></svg>